<svg width="170" height="170" viewBox="0 0 170 170" fill="none" xmlns="http://www.w3.org/2000/svg">
<path d="M144.034 35.2843L112.019 4.99574C108.614 1.77404 104.157 0 99.4689 0H38.5156C28.4461 0 20.2539 8.19221 20.2539 18.2617V151.738C20.2539 161.808 28.4461 170 38.5156 170H131.484C141.554 170 149.746 161.808 149.746 151.738V48.5503C149.746 43.5535 147.664 38.7182 144.034 35.2843ZM134.36 39.8438H109.57C108.655 39.8438 107.91 39.099 107.91 38.1836V14.8205L134.36 39.8438ZM131.484 160.039H38.5156C33.9386 160.039 30.2148 156.315 30.2148 151.738V18.2617C30.2148 13.6847 33.9386 9.96094 38.5156 9.96094H97.9492V38.1836C97.9492 44.5915 103.162 49.8047 109.57 49.8047H139.785V151.738C139.785 156.315 136.061 160.039 131.484 160.039Z" fill="#5A42FF"/>
<path d="M120.527 66.4062H47.4805C44.7299 66.4062 42.5 68.6362 42.5 71.3867C42.5 74.1373 44.7299 76.3672 47.4805 76.3672H120.527C123.278 76.3672 125.508 74.1373 125.508 71.3867C125.508 68.6362 123.278 66.4062 120.527 66.4062Z" fill="#5A42FF"/>
<path d="M120.527 92.9688H47.4805C44.7299 92.9688 42.5 95.1987 42.5 97.9492C42.5 100.7 44.7299 102.93 47.4805 102.93H120.527C123.278 102.93 125.508 100.7 125.508 97.9492C125.508 95.1987 123.278 92.9688 120.527 92.9688Z" fill="#5A42FF"/>
<path d="M71.6258 119.531H47.4805C44.7299 119.531 42.5 121.761 42.5 124.512C42.5 127.262 44.7299 129.492 47.4805 129.492H71.6258C74.3763 129.492 76.6063 127.262 76.6063 124.512C76.6063 121.761 74.3763 119.531 71.6258 119.531Z" fill="#5A42FF"/>
</svg>
