<svg width="37" height="29" viewBox="0 0 37 29" fill="none" xmlns="http://www.w3.org/2000/svg">
<path d="M24.64 28H19.04L6.36 8.84V28H0.76V0.0399976H6.36L19.04 19.24V0.0399976H24.64V28Z" fill="white"/>
<path d="M32.6541 28.28C31.6407 28.28 30.8007 27.9733 30.1341 27.36C29.4941 26.72 29.1741 25.9333 29.1741 25C29.1741 24.0667 29.4941 23.2933 30.1341 22.68C30.8007 22.04 31.6407 21.72 32.6541 21.72C33.6407 21.72 34.4541 22.04 35.0941 22.68C35.7341 23.2933 36.0541 24.0667 36.0541 25C36.0541 25.9333 35.7341 26.72 35.0941 27.36C34.4541 27.9733 33.6407 28.28 32.6541 28.28Z" fill="#5A42FF"/>
</svg>
